# xmcd
#
# Track frame offsets: 
#        150
#        29399
#        61936
#        100295
#        131036
#        168640
#        204662
#        243620
#        280443
#        315051
#
# Disc length: 4648 seconds
#
# Revision: 0
# Processed by: cddbd v1.5.2PL0 Copyright (c) Steve Scherf et al.
# Submitted via: ExactAudioCopy v1.0b3
#
DISCID=8f12260a
DTITLE=Various Artist - D.Trance Vol. 63 - CD 2
DYEAR=1900
DGENRE=
TTITLE0=North and Sanchez - Ooosh (Original Mix)
TTITLE1=Locanda and Kuznetsow Meets Cyrex Device - The Return (Thomas Pe
TTITLE1=tersen Oldschool Remix)
TTITLE2=Criostasis Vs. DJ Yorrin - The Howling (Original Mix)
TTITLE3=Dizmaster - Skygod (Original Mix)
TTITLE4=Abstract Vision and Elite Electronic Vs. Aimoon - Galactic (Orig
TTITLE4=inal Mix)
TTITLE5=Damian Wasse - For World For Earth (Original Mix)
TTITLE6=Kaimo Kerge - 6 Ways To Sunday (Original Mix)
TTITLE7=Mike Van Fabio - Hideout (Original Mix)
TTITLE8=Physical Dreams - The Crying (Miami Mafia Mix)
TTITLE9=Exis - Spring (Original Mix)
EXTD=
EXTT0=
EXTT1=
EXTT2=
EXTT3=
EXTT4=
EXTT5=
EXTT6=
EXTT7=
EXTT8=
EXTT9=
PLAYORDER=
